<svg width="116" height="116" viewBox="0 0 116 116" fill="none" xmlns="http://www.w3.org/2000/svg">
<g clip-path="url(#clip0)">
<path d="M71.9218 29.8009C72.0623 30.3199 72.3037 30.806 72.6322 31.2316C72.9608 31.6572 73.37 32.0138 73.8364 32.2811C74.3029 32.5484 74.8174 32.7212 75.3507 32.7895C75.884 32.8578 76.4255 32.8203 76.9442 32.6792L90.6975 28.9509C91.216 28.8109 91.7019 28.5702 92.1274 28.2423C92.5529 27.9145 92.9095 27.506 93.177 27.0402C93.4445 26.5744 93.6175 26.0605 93.6863 25.5278C93.755 24.9951 93.718 24.4541 93.5775 23.9357L91.0817 14.7064C90.7975 13.6581 90.1085 12.7656 89.1663 12.2252C88.2241 11.6847 87.1059 11.5406 86.0575 11.8246L72.3042 15.5529C71.2572 15.8384 70.366 16.5274 69.8262 17.4688C69.2863 18.4103 69.1417 19.5274 69.4242 20.5753L71.9218 29.8009Z" fill="#405866"/>
<path d="M44.2467 30.053C43.9609 31.0987 43.2721 31.9885 42.3314 32.5274C41.3906 33.0662 40.2746 33.2101 39.2279 32.9276L25.4765 29.1993C24.9576 29.0597 24.4713 28.8192 24.0455 28.4916C23.6196 28.1639 23.2625 27.7554 22.9947 27.2896C22.7269 26.8238 22.5535 26.3098 22.4845 25.7769C22.4156 25.244 22.4524 24.7027 22.5928 24.1841L25.0904 14.9566C25.375 13.9087 26.0643 13.0168 27.0065 12.477C27.9487 11.9372 29.0667 11.7938 30.1147 12.0784L43.8643 15.8067C44.3832 15.9469 44.8694 16.1879 45.2952 16.5159C45.7209 16.844 46.0779 17.2528 46.3457 17.7188C46.6135 18.1849 46.7868 18.6991 46.8559 19.2322C46.9249 19.7652 46.8882 20.3066 46.748 20.8255L44.2467 30.053Z" fill="#405866"/>
<path d="M55.1762 19.3466C56.1748 22.0508 57.4037 25.6359 58.0762 29.3806C58.7903 33.4188 57.2841 35.6409 54.4512 38.1241C53.621 38.8436 53.3383 39.9076 53.7044 40.9062C54.0905 41.9267 55.0892 42.6408 56.1368 42.6408C56.7403 42.6408 57.3185 42.416 57.8097 41.9847C60.2258 39.8804 62.031 37.9156 62.9844 35.1534C64.119 31.8891 63.1928 28.0792 62.5077 25.297C61.7428 22.194 60.63 19.1581 59.5461 16.2164L59.2452 15.4098C57.6321 11.0272 57.2479 7.72662 60.0083 3.80981C60.5684 3.00324 60.6499 2.06618 60.224 1.23424C59.3939 -0.362569 56.869 -0.641694 55.7779 0.909805C54.201 3.14281 52.5988 5.95037 52.6622 9.80374C52.7202 12.7998 53.7769 15.6037 54.7992 18.3189L55.1852 19.3429" fill="#354A54"/>
<path d="M55.7217 41.0005C55.3501 40.0072 55.6365 38.9414 56.463 38.2201C59.3013 35.7406 60.8093 33.5148 60.088 29.4802C59.4228 25.7356 58.1903 22.1577 57.1934 19.4462L56.8073 18.4185C55.7923 15.7052 54.7302 12.9013 54.6758 9.9052C54.607 6.04457 56.2092 3.24245 57.7897 1.01126C58.0398 0.64695 58.3733 0.391388 58.7377 0.2192C57.6538 -0.255675 56.2545 -0.047237 55.5132 1.01126C53.9345 3.24064 52.3395 6.04457 52.3975 9.9052C52.4592 12.9013 53.5068 15.7052 54.5345 18.4185L54.9133 19.4462C55.9192 22.1504 57.1499 25.7356 57.8169 29.4802C58.531 33.5148 57.0248 35.7406 54.1919 38.2201C53.3582 38.9414 53.0754 40.0072 53.4506 41.0005C53.8276 42.0245 54.8263 42.7404 55.8721 42.7404C56.2636 42.7404 56.646 42.6299 57.0067 42.4432C56.4135 42.1388 55.9547 41.6245 55.7198 41.0005" fill="#405866"/>
<path d="M10.8315 29.8718C26.0275 4.89553 48.9302 22.2702 48.9302 22.2702C50.4146 23.3903 53.1533 24.3147 55.0075 24.3219L61.1483 24.3255C63.0097 24.3255 65.7502 23.4048 67.231 22.2774C67.231 22.2774 90.1319 4.9064 105.33 29.8754C120.538 54.8426 114.41 82.0319 114.41 82.0319C113.332 88.691 109.798 93.1335 103.122 92.5698C96.4666 92.0133 82.0228 74.6478 82.0228 74.6478C80.8338 73.2141 78.3344 72.0432 76.4693 72.0432L39.701 72.0342C37.8468 72.0342 35.3491 73.205 34.1565 74.6315C34.1565 74.6315 19.7018 92.0133 13.0463 92.568C6.37271 93.1262 2.83289 88.6747 1.76896 82.0228C1.76896 82.0265 -4.36636 54.8372 10.8315 29.8718Z" fill="#354A54"/>
<path d="M18.9805 81.9251C18.9805 81.9251 12.8452 54.7376 28.0412 29.7722C31.8438 23.5264 36.1268 19.9267 40.4151 18.0435C32.364 15.236 20.0426 14.511 10.6611 29.9245C-4.52941 54.8989 1.59865 82.081 1.59865 82.081C2.66621 88.7401 6.21146 93.1844 12.876 92.6207C15.0293 92.4485 17.9963 90.5019 21.0268 87.9662C20.0263 86.2987 19.3521 84.2505 18.9823 81.9251" fill="#405866"/>
<path d="M72.2227 24.2134H78.3598C80.2158 24.2206 82.9545 23.2963 84.4371 22.1743C84.4371 22.1743 87.6108 19.7691 92.3777 18.0328C79.6721 12.7711 67.0607 22.332 67.0607 22.332C66.9538 22.4099 66.845 22.4897 66.729 22.564C68.2751 23.5011 70.586 24.2116 72.2209 24.2116" fill="#405866"/>
<path d="M99.2253 74.5482C98.0418 73.1145 95.5423 71.9419 93.6809 71.9419L56.9125 71.9382C56.4776 71.9457 56.0448 72.001 55.622 72.1032H76.3026C78.1604 72.1032 80.6653 73.274 81.8507 74.7077C81.8507 74.7077 96.2981 92.0805 102.954 92.637C107.396 93.0085 110.445 91.1616 112.306 87.919C105.93 82.603 99.2253 74.5482 99.2253 74.5482Z" fill="#405866"/>
<path d="M43.0614 42.5377C43.0186 41.9878 43.0011 41.4362 43.0088 40.8847C43.0059 40.7947 43.0279 40.7056 43.0723 40.6273C42.8704 40.2325 42.6161 39.8667 42.3165 39.5398C42.2523 39.4761 42.2054 39.397 42.1804 39.3101C42.1553 39.2232 42.1529 39.1313 42.1733 39.0432H34.5463V31.3708H26.3066V39.0432H19.6892V47.4097H26.3066V53.6175H34.5463V47.4097H42.6119C42.659 45.889 43.0288 44.3683 43.2118 42.853C43.1243 42.7702 43.0707 42.6578 43.0614 42.5377Z" fill="#A2ABAF"/>
<path d="M34.5825 31.1642C34.5825 29.9806 33.6255 29.02 32.4456 29.02H28.4563C27.2763 29.02 26.3121 29.9806 26.3121 31.1642C26.3121 32.3441 27.2745 33.3048 28.4563 33.3048H32.4456C32.7264 33.3045 33.0045 33.249 33.2639 33.1413C33.5233 33.0336 33.7589 32.8758 33.9574 32.6771C34.1558 32.4783 34.3131 32.2424 34.4204 31.9828C34.5277 31.7232 34.5827 31.4451 34.5825 31.1642Z" fill="#A2ABAF"/>
<path d="M19.6892 47.2882V39.0504H26.2432V33.1326H34.6097V39.0504H42.2856V47.2882H34.6097V53.6247H26.2432V47.2882H19.6892Z" fill="#A2ABAF"/>
<path d="M42.4941 47.3064C43.6758 47.3064 44.6346 46.3475 44.6346 45.164V41.1783C44.6119 40.6258 44.3764 40.1035 43.9775 39.7207C43.5785 39.3378 43.047 39.124 42.4941 39.124C41.9411 39.124 41.4096 39.3378 41.0107 39.7207C40.6117 40.1035 40.3763 40.6258 40.3535 41.1783V45.164C40.353 45.4453 40.4081 45.724 40.5155 45.984C40.6228 46.244 40.7805 46.4803 40.9793 46.6793C41.1781 46.8783 41.4143 47.0361 41.6742 47.1437C41.9342 47.2513 42.2128 47.3066 42.4941 47.3064Z" fill="#A2ABAF"/>
<path d="M17.7879 43.9169C17.8441 44.4697 17.8441 45.0152 17.8441 45.5681C17.8467 45.6571 17.8241 45.7451 17.7788 45.8218C17.9746 46.2042 18.2229 46.5704 18.5292 46.9129C18.6724 47.0688 18.7177 47.2482 18.676 47.4059H26.3012V55.0801H34.5462V47.4059H41.1601V39.0412H34.5462V32.8389H26.3012V39.0412H18.2356C18.1939 40.5637 17.8223 42.0826 17.6411 43.5961C17.7268 43.682 17.7789 43.7958 17.7879 43.9169Z" fill="#A2ABAF"/>
<path d="M26.2686 55.2869C26.2686 56.4705 27.2328 57.4329 28.4218 57.4329H32.4021C33.5838 57.4329 34.5462 56.4705 34.5462 55.2869C34.5462 54.1106 33.5838 53.1445 32.4021 53.1445H28.4218C27.2328 53.1445 26.2686 54.1106 26.2686 55.2869Z" fill="#A2ABAF"/>
<path d="M41.1601 39.1663V47.4041H34.6061V53.3256H26.236V47.4041H18.5637V39.1663H26.236V32.8389H34.6061V39.1663H41.1601Z" fill="#A2ABAF"/>
<path d="M18.357 39.1411C18.076 39.1411 17.7977 39.1965 17.5381 39.3041C17.2785 39.4117 17.0427 39.5694 16.844 39.7682C16.6454 39.967 16.4879 40.203 16.3805 40.4627C16.2732 40.7224 16.218 41.0007 16.2183 41.2817V45.2656C16.2183 45.8333 16.4438 46.3777 16.8452 46.7792C17.2467 47.1806 17.7911 47.4061 18.3588 47.4061C18.9265 47.4061 19.471 47.1806 19.8724 46.7792C20.2739 46.3777 20.4994 45.8333 20.4994 45.2656V41.2817C20.4996 41.0004 20.4444 40.7218 20.3368 40.4618C20.2292 40.2019 20.0713 39.9657 19.8723 39.7669C19.6733 39.5681 19.437 39.4104 19.177 39.3031C18.917 39.1957 18.6383 39.1406 18.357 39.1411Z" fill="#A2ABAF"/>
<path d="M42.05 41.796C42.0025 41.247 41.9813 40.6959 41.9866 40.1448C41.9866 40.0452 42.0156 39.9618 42.05 39.8911C41.8501 39.496 41.597 39.1301 41.2978 38.8036C41.236 38.7387 41.1907 38.6598 41.1658 38.5737C41.1408 38.4876 41.137 38.3967 41.1547 38.3088H33.5367V30.6365H25.2971V38.3088H18.6706V46.6789H25.2971V52.8777H33.5367V46.6789H41.5951C41.6422 45.151 42.0156 43.6303 42.195 42.1168C42.1087 42.0315 42.0571 41.9172 42.05 41.796Z" fill="#CBD5DC"/>
<path d="M33.5549 30.4299C33.5549 29.2499 32.5942 28.2893 31.4143 28.2893H27.4268C27.1459 28.2895 26.8679 28.3451 26.6085 28.4528C26.3491 28.5605 26.1134 28.7182 25.915 28.917C25.7166 29.1158 25.5592 29.3517 25.452 29.6113C25.3447 29.8708 25.2896 30.149 25.2899 30.4299C25.2894 30.7109 25.3443 30.9892 25.4514 31.249C25.5586 31.5088 25.7159 31.7449 25.9144 31.9439C26.1128 32.1429 26.3485 32.3008 26.6081 32.4086C26.8676 32.5164 27.1458 32.572 27.4268 32.5722H31.4143C32.5942 32.5722 33.5549 31.6134 33.5549 30.4299Z" fill="#CBD5DC"/>
<path d="M18.6633 46.5558V38.3143H25.2228V32.4001H33.5875V38.3143H41.2634V46.5558H33.5875V52.8832H25.2228V46.5558H18.6633Z" fill="#CBD5DC"/>
<path d="M41.4664 46.583C42.6591 46.583 43.6142 45.6205 43.6142 44.437V40.4531C43.6145 40.1713 43.559 39.8922 43.4511 39.632C43.3432 39.3717 43.1848 39.1353 42.9853 38.9364C42.7857 38.7375 42.5487 38.5799 42.2881 38.4729C42.0274 38.3658 41.7482 38.3113 41.4664 38.3125C40.2901 38.3125 39.3259 39.2677 39.3259 40.4531V44.437C39.3259 45.6205 40.2901 46.583 41.4664 46.583Z" fill="#CBD5DC"/>
<path d="M16.7693 43.1843C16.8164 43.7335 16.82 44.2881 16.82 44.8337C16.8191 44.9234 16.8006 45.0121 16.7656 45.0947C16.956 45.4771 17.2006 45.8378 17.507 46.1804C17.652 46.3362 17.6936 46.5157 17.6538 46.677H25.279V54.3457H33.5186V46.677H40.136V38.3105H33.5186V32.1045H25.279V38.3105H17.2224C17.1771 39.833 16.7965 41.3537 16.6243 42.8653C16.7068 42.9525 16.7579 43.0648 16.7693 43.1843Z" fill="#CBD5DC"/>
<path d="M25.2554 54.5559C25.254 54.8379 25.3083 55.1173 25.4152 55.3781C25.5222 55.639 25.6797 55.8761 25.8786 56.0759C26.0775 56.2757 26.314 56.4342 26.5744 56.5422C26.8348 56.6503 27.114 56.7058 27.396 56.7055H31.3798C31.937 56.6893 32.4659 56.4566 32.8543 56.0568C33.2427 55.6569 33.4599 55.1215 33.4599 54.5641C33.4599 54.0067 33.2427 53.4712 32.8543 53.0714C32.4659 52.6715 31.937 52.4388 31.3798 52.4226H27.396C26.2106 52.4226 25.2554 53.3778 25.2554 54.5559Z" fill="#CBD5DC"/>
<path d="M40.1288 38.4248V46.6662H33.5802V52.5804H25.2101V46.6662H17.5414V38.4248H25.2101V32.0938H33.5802V38.4248H40.1288Z" fill="#CBD5DC"/>
<path d="M17.3348 38.4067C16.1548 38.4067 15.1888 39.3655 15.1888 40.5546V44.5348C15.205 45.0924 15.4379 45.6218 15.8381 46.0105C16.2383 46.3992 16.7742 46.6167 17.3321 46.6167C17.8899 46.6167 18.4259 46.3992 18.826 46.0105C19.2262 45.6218 19.4591 45.0924 19.4753 44.5348V40.5546C19.4753 39.3674 18.5183 38.4067 17.3348 38.4067Z" fill="#CBD5DC"/>
<path d="M98.9263 32.7883C98.9263 34.1047 98.4033 35.3672 97.4725 36.298C96.5416 37.2289 95.2791 37.7518 93.9627 37.7518C92.6463 37.7518 91.3838 37.2289 90.453 36.298C89.5221 35.3672 88.9992 34.1047 88.9992 32.7883C89.0002 31.4714 89.5237 30.2088 90.4548 29.2777C91.386 28.3465 92.6486 27.823 93.9655 27.822C94.6174 27.822 95.2629 27.9505 95.8651 28.2002C96.4674 28.4498 97.0145 28.8157 97.4752 29.2769C97.9359 29.7382 98.3012 30.2857 98.5502 30.8882C98.7992 31.4907 98.927 32.1364 98.9263 32.7883Z" fill="#FAAA33"/>
<path d="M80.4388 41.5987C83.1826 41.5987 85.4068 39.3744 85.4068 36.6307C85.4068 33.8869 83.1826 31.6626 80.4388 31.6626C77.695 31.6626 75.4707 33.8869 75.4707 36.6307C75.4707 39.3744 77.695 41.5987 80.4388 41.5987Z" fill="#FAAA33"/>
<path d="M103.893 45.889C103.891 47.2071 103.366 48.4706 102.433 49.4017C101.5 50.3329 100.235 50.8557 98.9172 50.8553C97.6168 50.8304 96.3779 50.2963 95.467 49.3679C94.5561 48.4394 94.0458 47.1906 94.0458 45.8899C94.0458 44.5892 94.5561 43.3404 95.467 42.4119C96.3779 41.4835 97.6168 40.9494 98.9172 40.9246C99.5699 40.9238 100.216 41.0517 100.82 41.3008C101.423 41.5499 101.971 41.9154 102.433 42.3764C102.895 42.8374 103.262 43.3848 103.512 43.9875C103.763 44.5902 103.892 45.2363 103.893 45.889Z" fill="#FAAA33"/>
<path d="M90.364 49.7243C90.329 51.0178 89.7907 52.2465 88.8635 53.149C87.9363 54.0514 86.6935 54.5564 85.3996 54.5564C84.1057 54.5564 82.8629 54.0514 81.9357 53.149C81.0084 52.2465 80.4701 51.0178 80.4351 49.7243C80.4344 49.0717 80.5623 48.4253 80.8114 47.822C81.0605 47.2188 81.4259 46.6705 81.8869 46.2085C82.3479 45.7465 82.8954 45.3798 83.4981 45.1294C84.1008 44.879 84.7469 44.7497 85.3996 44.749C86.0522 44.7497 86.6983 44.879 87.301 45.1294C87.9037 45.3798 88.4512 45.7465 88.9122 46.2085C89.3732 46.6705 89.7387 47.2188 89.9878 47.822C90.2369 48.4253 90.3647 49.0717 90.364 49.7243Z" fill="#FAAA33"/>
</g>
<defs>
<clipPath id="clip0">
<rect width="116" height="116" fill="white"/>
</clipPath>
</defs>
</svg>
